<svg width="993" xmlns="http://www.w3.org/2000/svg" height="653" viewBox="0 0 993 653" fill="none">
  <!-- Main wing (bright indigo) -->
  <path d="M738.4285278320312,435.1900634765625C722.6889038085938,442.0311279296875,708.3177490234375,446.135498046875,691.8939819335938,451.6085205078125L674.1011962890625,484.4443359375C622.0921020507812,489.233642578125,597.4559326171875,409.879150390625,581.0322265625,371.5692138671875L507.12451171875,197.8104248046875C496.17498779296875,171.814697265625,477.69793701171875,126.6646728515625,464.01129150390625,102.7215576171875C455.11505126953125,87.6710205078125,444.85009765625,73.3052978515625,432.53216552734375,60.9920654296875C362.046142578125,-11.5223388671875,285.40130615234375,0.7916259765625,192.33197021484375,0.7916259765625C128.00506591796875,1.4755859375,64.36183166503906,1.4755859375,0.03493499755859375,0.7916259765625C-1.3338165283203125,81.5147705078125,37.67317199707031,140.3466796875,104.73756408691406,181.39208984375C107.47506713867188,195.7578125,110.89678955078125,212.860107421875,115.686767578125,226.5421142578125C134.848388671875,227.22607421875,161.53704833984375,238.1712646484375,176.59243774414062,232.0150146484375L177.96121215820312,229.96240234375C173.1707763671875,219.701171875,171.11788940429688,212.860107421875,167.69622802734375,201.9149169921875C277.8734436035156,212.860107421875,314.82708740234375,186.180419921875,418.161376953125,241.591796875C451.00921630859375,266.2197265625,472.223388671875,284.005859375,494.80621337890625,319.578369140625C509.861572265625,348.99462890625,523.5482177734375,380.462646484375,536.5507202148438,411.2469482421875C559.133544921875,463.9217529296875,579.6634521484375,516.59716796875,639.2003784179688,536.43603515625C641.2532958984375,537.1199951171875,643.3062133789062,537.803955078125,646.043701171875,538.48779296875C684.3661499023438,539.1717529296875,691.20947265625,536.43603515625,722.00439453125,513.86083984375C722.00439453125,513.86083984375,722.00439453125,513.86083984375,722.00439453125,513.86083984375C729.5322265625,502.2314453125,758.9584350585938,447.5040283203125,763.7488403320312,435.1900634765625C769.2234497070312,426.296630859375,772.6450805664062,420.140380859375,776.7509155273438,410.5631103515625C765.1171264648438,411.2469482421875,753.4839477539062,427.6654052734375,738.4285278320312,433.822265625ZM351.0965881347656,156.0802001953125C331.93536376953125,153.3446044921875,318.24871826171875,151.2918701171875,299.0875244140625,149.924072265625C199.85989379882812,145.8189697265625,117.05549621582031,168.3941650390625,67.78349304199219,57.57177734375L218.33651733398438,57.57177734375C249.13140869140625,57.57177734375,299.0875244140625,54.835205078125,327.14495849609375,61.6759033203125C350.41241455078125,67.8330078125,372.31109619140625,79.462158203125,389.41937255859375,96.564453125C412.68646240234375,119.8238525390625,431.1634521484375,158.8167724609375,441.428466796875,190.284912109375C403.7901611328125,171.1307373046875,392.1564636230469,166.341552734375,351.0965881347656,156.0802001953125Z" fill="#818CF8"/>
  <!-- Shadow layers -->
  <path d="M115.00260925292969,226.5421142578125C134.16380310058594,227.22607421875,160.8529052734375,238.1712646484375,175.90826416015625,232.0150146484375L177.27658081054688,229.96240234375C195.75363159179688,262.1146240234375,219.02108764648438,284.005859375,255.9747314453125,294.2674560546875C274.4517517089844,299.0555419921875,292.92840576171875,298.37158203125,312.0899963378906,301.1082763671875C368.2048645019531,308.6331787109375,404.47479248046875,342.15380859375,427.7418212890625,392.77685546875C453.746337890625,447.5040283203125,473.59210205078125,511.80810546875,503.70281982421875,563.7996826171875C517.3895263671875,587.0582275390625,550.2373046875,602.1087646484375,574.873046875,597.3197021484375C605.66796875,594.583984375,635.7787475585938,567.904052734375,645.3591918945312,538.48779296875C683.6819458007812,539.1717529296875,690.5252685546875,536.43603515625,721.3202514648438,513.86083984375C696.6840209960938,565.16748046875,672.0482177734375,621.9476318359375,615.9329223632812,643.8382568359375C589.928466796875,654.099609375,561.8710327148438,655.4674072265625,535.1819458007812,649.3111572265625C466.748779296875,633.5767822265625,444.85009765625,578.8494873046875,420.89849853515625,522.0694580078125L385.3131408691406,437.9266357421875C375.0481872558594,413.9833984375,366.8365478515625,390.040283203125,346.30657958984375,373.621826171875C318.9333190917969,351.731201171875,290.87548828125,355.835693359375,258.7122497558594,351.04638671875C242.97268676757812,348.3106689453125,227.91729736328125,344.20556640625,213.5465087890625,337.3646240234375C161.53704833984375,314.7900390625,134.848388671875,276.481201171875,115.00260925292969,225.858154296875L115.00260925292969,225.858154296875Z" fill="#6366F1" fill-opacity="0.45"/>
  <path d="M299.771728515625,149.924072265625C318.9333190917969,151.2918701171875,332.6199645996094,152.6597900390625,351.7811279296875,156.0802001953125C392.841064453125,166.341552734375,404.47479248046875,171.1307373046875,442.11297607421875,190.284912109375C451.00921630859375,204.6514892578125,492.7532958984375,302.47607421875,495.49078369140625,320.2623291015625C472.90789794921875,284.6898193359375,452.37799072265625,267.5875244140625,418.84552001953125,242.276611328125C398.3156433105469,204.6514892578125,377.10150146484375,184.8126220703125,340.1474609375,164.289794921875C327.14495849609375,160.185302734375,312.0899963378906,156.0802001953125,299.771728515625,149.924072265625Z" fill="#6366F1" fill-opacity="0.45"/>
  <path d="M104.73756408691406,181.39208984375C111.58094787597656,184.128662109375,169.7491455078125,203.9666748046875,167.69622802734375,202.5987548828125C171.11788940429688,213.5440673828125,173.1707763671875,220.385009765625,177.96121215820312,230.6463623046875L176.59243774414062,232.698974609375C161.53704833984375,238.8560791015625,134.848388671875,227.909912109375,115.686767578125,227.22607421875C111.58094787597656,213.5440673828125,108.15922546386719,196.4417724609375,104.73756408691406,182.0760498046875Z" fill="#4F46E5" fill-opacity="0.35"/>
  <path d="M594.7188720703125,318.2105712890625C611.1425170898438,285.373779296875,630.30419921875,251.85302734375,647.4124755859375,219.701171875C704.2119140625,110.2464599609375,749.3776245117188,-2.62884521484375,895.14013671875,0.7916259765625C925.93505859375,1.4755859375,962.205078125,0.7916259765625,992.9998779296875,0.7916259765625C986.156494140625,17.2100830078125,971.785400390625,42.521240234375,962.88916015625,58.9395751953125L889.6656494140625,198.494384765625L817.1266479492188,335.3128662109375C805.4928588867188,357.2034912109375,789.0687866210938,391.4080810546875,776.0667114257812,411.930908203125C764.4330444335938,412.6148681640625,752.7992553710938,429.033203125,737.7439575195312,435.1900634765625C722.00439453125,442.0311279296875,707.6336059570312,446.135498046875,691.20947265625,451.6085205078125C759.6426391601562,320.9471435546875,832.8661499023438,188.2330322265625,899.9305419921875,56.886962890625C787.7005004882812,54.1512451171875,763.7488403320312,117.0872802734375,717.8985595703125,203.28271484375C686.4190673828125,262.7991943359375,654.93994140625,325.7354736328125,622.0921020507812,383.8831787109375L594.0342407226562,317.526611328125Z" fill="#6366F1" fill-opacity="0.45"/>
</svg>
