<svg xmlns="http://www.w3.org/2000/svg" viewBox="0 0 431 97.455" fill="none">
  <!-- Bird icon -->
  <g>
    <path d="M107.905 65.616c-2.3 1-4.4 1.6-6.8 2.4l-2.6 4.8c-7.6.7-11.2-10.9-13.6-16.5L74.105 30.916c-1.6-3.8-4.3-10.4-6.3-13.9-1.3-2.2-2.8-4.3-4.6-6.1-10.3-10.6-21.5-8.8-35.1-8.8-9.4.1-18.7.1-28.1 0C-.195 13.916 5.505 22.516 15.305 28.516c.4 2.1.9 4.6 1.6 6.6 2.8.1 6.7 1.7 8.9.8l.2-.3c-.7-1.5-1-2.5-1.5-4.1 16.1 1.6 21.5-2.3 36.6 5.8 4.8 3.6 7.9 6.2 11.2 11.4 2.2 4.3 4.2 8.9 6.1 13.4 3.3 7.7 6.3 15.4 15 18.3.3.1.6.2 1 .3 5.6.1 6.6-.3 11.1-3.6 0 0 0 0 0 0 1.1-1.7 5.4-9.7 6.1-11.5.8-1.3 1.3-2.2 1.9-3.6-1.7.1-3.4 2.5-5.6 3.4zM51.305 24.816c-2.8-.4-4.8-.7-7.6-.9-14.5-.6-26.6 2.7-33.8-13.5h22l.1-.001c4.4 0 11.6-.4 15.7.6 3.4.9 6.6 2.6 9.1 5.1 3.4 3.4 6.1 9.1 7.6 13.7-5.5-2.8-7.2-3.5-13.2-5z" fill="#818CF8"/>
    <path d="M16.805 35.116c2.8.1 6.7 1.7 8.9.8l.2-.3c2.7 4.7 6.1 7.9 11.5 9.4 2.7.7 5.4.6 8.2 1 8.2 1.1 13.5 6 16.9 13.4 3.8 8 6.7 17.4 11.1 25 2 3.4 6.8 5.6 10.4 4.9 4.5-.4 8.9-4.3 10.3-8.6 5.6.1 6.6-.3 11.1-3.6-3.6 7.5-7.2 15.8-15.4 19-3.8 1.5-7.9 1.7-11.8.8-10-2.3-13.2-10.3-16.7-18.6l-5.2-12.3c-1.5-3.5-2.7-7-5.7-9.4-4-3.2-8.1-2.6-12.8-3.3-2.3-.4-4.5-1-6.6-2-7.6-3.3-11.5-8.9-14.4-16.3z" fill="#1C2549"/>
    <path d="M43.805 23.916c2.8.2 4.8.4 7.6.9 6 1.5 7.7 2.2 13.2 5 1.3 2.1 7.4 16.4 7.8 19-.3.3-3.3-5.2-11.2-11.4-3-5.5-6.1-8.4-11.5-11.4-1.8-.6-4-1.2-5.8-2.1z" fill="#1C2549"/>
    <path d="M15.305 28.516c1 .4 9.5 3.3 9.2 3.1.5 1.6.8 2.6 1.5 4.1l-.2.3c-2.2.9-6.1-.7-8.9-.8-.6-2-1.1-4.5-1.6-6.6z" fill="#10182C"/>
    <path d="M86.905 48.516c2.4-4.8 5.2-9.7 7.7-14.4 8.3-16 14.9-32.5 36.2-32 4.5.1 9.8 0 14.3 0-1 2.4-3.1 6.1-4.4 8.5l-10.7 20.4-10.6 20c-1.7 3.2-4.1 8.2-6 11.2-1.7.1-3.4 2.5-5.6 3.4-2.3 1-4.4 1.6-6.8 2.4 10-19.1 20.7-38.5 30.5-57.7-16.4-.4-19.9 8.8-26.6 21.4-4.6 8.7-9.2 17.9-14 26.4l-4.1-9.7z" fill="#1C2549"/>
  </g>
  <!-- "VELO" text (paths with fill + stroke to match original) -->
  <g fill="#1C2549" stroke="#1C2549" stroke-width="4" stroke-linejoin="round">
    <path d="M189.5 94.0 160.390625 40.0H168.125L194.0 89.21875L219.875 40.0H227.50390625L198.5 94.0Z"/>
    <path d="M237.75 94.0V40.0H290.765625V45.625H244.5V63.625H288.83203125V69.25H244.5V88.375H291.75V94.0Z"/>
    <path d="M301.75 94.0V40.0H308.5V88.375H351.25V94.0Z"/>
    <path d="M385.12109375 95.125Q377.2109375 95.125 372.11328125 94.052734375Q367.015625 92.98046875 364.150390625 90.09765625Q361.28515625 87.21484375 360.142578125 81.80078125Q359.0 76.38671875 359.0 67.703125V66.296875Q359.0 59.125 359.703125 54.255859375Q360.40625 49.38671875 362.12890625 46.328125Q363.8515625 43.26953125 366.822265625 41.65234375Q369.79296875 40.03515625 374.29296875 39.455078125Q378.79296875 38.875 385.12109375 38.875H399.2890625Q405.6171875 38.875 410.1171875 39.455078125Q414.6171875 40.03515625 417.587890625 41.65234375Q420.55859375 43.26953125 422.28125 46.328125Q424.00390625 49.38671875 424.70703125 54.255859375Q425.41015625 59.125 425.41015625 66.296875V67.703125Q425.41015625 76.38671875 424.267578125 81.80078125Q423.125 87.21484375 420.259765625 90.09765625Q417.39453125 92.98046875 412.296875 94.052734375Q407.19921875 95.125 399.2890625 95.125ZM385.12109375 89.2890625H399.2890625Q404.31640625 89.2890625 407.76171875 88.9375Q411.20703125 88.5859375 413.369140625 87.42578125Q415.53125 86.265625 416.673828125 83.91015625Q417.81640625 81.5546875 418.23828125 77.6171875Q418.66015625 73.6796875 418.66015625 67.703125V66.296875Q418.66015625 60.109375 418.23828125 56.1015625Q417.81640625 52.09375 416.673828125 49.7734375Q415.53125 47.453125 413.369140625 46.380859375Q411.20703125 45.30859375 407.76171875 45.009765625Q404.31640625 44.7109375 399.2890625 44.7109375H385.12109375Q380.09375 44.7109375 376.6484375 45.009765625Q373.203125 45.30859375 371.041015625 46.380859375Q368.87890625 47.453125 367.736328125 49.7734375Q366.59375 52.09375 366.171875 56.1015625Q365.75 60.109375 365.75 66.296875V67.703125Q365.75 73.6796875 366.171875 77.6171875Q366.59375 81.5546875 367.736328125 83.91015625Q368.87890625 86.265625 371.041015625 87.42578125Q373.203125 88.5859375 376.6484375 88.9375Q380.09375 89.2890625 385.12109375 89.2890625Z"/>
  </g>
</svg>
